<?xml version="1.0" encoding="utf-8"?>
<!-- Generator: Adobe Illustrator 22.1.0, SVG Export Plug-In . SVG Version: 6.00 Build 0)  -->
<svg version="1.1" id="Layer_1" xmlns="http://www.w3.org/2000/svg" xmlns:xlink="http://www.w3.org/1999/xlink" x="0px" y="0px"
	 viewBox="0 0 116 137.4" style="enable-background:new 0 0 116 137.4;" xml:space="preserve">
<style type="text/css">
	.st0{fill:none;stroke:url(#SVGID_1_);stroke-width:3;stroke-miterlimit:10;}
	.st1{fill:none;stroke:url(#SVGID_2_);stroke-width:3;stroke-miterlimit:10;}
	.st2{fill:none;stroke:url(#SVGID_3_);stroke-width:3;stroke-miterlimit:10;}
	.st3{fill:none;stroke:url(#SVGID_4_);stroke-width:3;stroke-miterlimit:10;}
	.st4{fill:none;stroke:url(#SVGID_5_);stroke-width:3;stroke-miterlimit:10;}
</style>
<linearGradient id="SVGID_1_" gradientUnits="userSpaceOnUse" x1="6.2055" y1="83.95" x2="24.1739" y2="83.95" gradientTransform="matrix(1 0 0 -1 0 154)">
	<stop  offset="0" style="stop-color:#2B3990"/>
	<stop  offset="0.3163" style="stop-color:#2E3192"/>
	<stop  offset="0.598" style="stop-color:#61498C"/>
	<stop  offset="0.8566" style="stop-color:#662D91"/>
</linearGradient>
<line class="st0" x1="7.6" y1="43.4" x2="22.7" y2="96.7"/>
<linearGradient id="SVGID_2_" gradientUnits="userSpaceOnUse" x1="7.2716" y1="131.25" x2="57.7284" y2="131.25" gradientTransform="matrix(1 0 0 -1 0 154)">
	<stop  offset="0" style="stop-color:#2B3990"/>
	<stop  offset="0.2701" style="stop-color:#00729F"/>
	<stop  offset="0.5437" style="stop-color:#00B2A4"/>
	<stop  offset="0.8059" style="stop-color:#009F5F"/>
</linearGradient>
<line class="st1" x1="56.8" y1="3.6" x2="8.2" y2="41.9"/>
<linearGradient id="SVGID_3_" gradientUnits="userSpaceOnUse" x1="94.0788" y1="84.05" x2="111.7969" y2="84.05" gradientTransform="matrix(1 0 0 -1 0 154)">
	<stop  offset="0.2034" style="stop-color:#BE1E2D"/>
	<stop  offset="0.7407" style="stop-color:#F7941D"/>
	<stop  offset="1" style="stop-color:#EF4136"/>
</linearGradient>
<line class="st2" x1="110.4" y1="43.1" x2="95.5" y2="96.8"/>
<linearGradient id="SVGID_4_" gradientUnits="userSpaceOnUse" x1="24.2" y1="56.2" x2="94.1" y2="56.2" gradientTransform="matrix(1 0 0 -1 0 154)">
	<stop  offset="5.618000e-03" style="stop-color:#662D91"/>
	<stop  offset="0.5" style="stop-color:#92278F"/>
	<stop  offset="0.8962" style="stop-color:#BE1E2D"/>
</linearGradient>
<line class="st3" x1="24.2" y1="97.8" x2="94.1" y2="97.8"/>
<linearGradient id="SVGID_5_" gradientUnits="userSpaceOnUse" x1="57.6102" y1="131.5" x2="110.6898" y2="131.5" gradientTransform="matrix(1 0 0 -1 0 154)">
	<stop  offset="5.618000e-03" style="stop-color:#009444"/>
	<stop  offset="4.136619e-02" style="stop-color:#009F5F"/>
	<stop  offset="0.5" style="stop-color:#8DC63F"/>
	<stop  offset="1" style="stop-color:#F15A29"/>
</linearGradient>
<line class="st4" x1="58.5" y1="3.6" x2="109.8" y2="41.4"/>
<g>
	<path d="M47.3,72.7c0.5,2.7,1.4,4.8,2.8,6.3c1.4,1.5,3.4,2.2,6.1,2.2c3.1,0,5.5-1.1,7.1-3.3s2.4-4.9,2.4-8.2s-0.8-6-2.3-8.2
		s-3.9-3.4-7.1-3.4c-1.5,0-2.8,0.2-3.9,0.6c-2,0.7-3.4,2-4.4,3.9l-11.2-0.5l4.5-35.2h35.1v10.6h-26l-2.3,13.9
		c1.9-1.3,3.4-2.1,4.5-2.5c1.8-0.7,4-1,6.6-1c5.3,0,9.9,1.8,13.8,5.3c3.9,3.5,5.9,8.7,5.9,15.5c0,5.9-1.9,11.1-5.7,15.8
		c-3.8,4.6-9.4,6.9-16.9,6.9c-6.1,0-11-1.6-14.9-4.9s-6.1-7.9-6.5-13.8H47.3z"/>
</g>
<g>
	<path d="M32.7,113c0,0.6,0.2,1,0.4,1.4c0.4,0.7,1.2,1,2.3,1c0.5,0,0.9-0.1,1.3-0.2c0.8-0.3,1.2-0.8,1.2-1.5c0-0.5-0.2-0.9-0.5-1.2
		c-0.3-0.2-0.9-0.4-1.6-0.6l-1.3-0.3c-0.9-0.2-1.5-0.4-1.8-0.7c-0.6-0.4-0.9-1-0.9-1.9s0.3-1.6,0.9-2.2c0.6-0.6,1.5-0.9,2.6-0.9
		c1,0,1.9,0.3,2.6,0.8s1.1,1.3,1.1,2.4h-1.3c-0.1-0.5-0.2-1-0.4-1.2c-0.4-0.5-1.1-0.8-2-0.8c-0.8,0-1.3,0.2-1.7,0.5
		s-0.5,0.7-0.5,1.2s0.2,0.9,0.6,1.1c0.3,0.1,0.9,0.3,1.8,0.5l1.4,0.3c0.7,0.2,1.2,0.4,1.5,0.6c0.6,0.5,0.9,1.2,0.9,2
		c0,1.1-0.4,1.9-1.2,2.4c-0.8,0.5-1.7,0.7-2.7,0.7c-1.2,0-2.2-0.3-2.9-1c-0.7-0.6-1-1.5-1-2.6h1.2V113z"/>
	<path d="M41.3,106.2h7.3v1.2h-6v3h5.5v1.2h-5.5v3.4h6.1v1.2h-7.4C41.3,116.2,41.3,106.2,41.3,106.2z"/>
	<path d="M50.5,106.2h1.6l5,8.1v-8.1h1.3v10h-1.5l-5.1-8.1v8.1h-1.3V106.2z"/>
	<path d="M61.5,113c0,0.6,0.2,1,0.4,1.4c0.4,0.7,1.2,1,2.3,1c0.5,0,0.9-0.1,1.3-0.2c0.8-0.3,1.2-0.8,1.2-1.5c0-0.5-0.2-0.9-0.5-1.2
		c-0.3-0.2-0.9-0.4-1.6-0.6l-1.3-0.3c-0.9-0.2-1.5-0.4-1.8-0.7c-0.6-0.4-0.9-1-0.9-1.9s0.3-1.6,0.9-2.2c0.6-0.6,1.5-0.9,2.6-0.9
		c1,0,1.9,0.3,2.6,0.8c0.7,0.5,1.1,1.3,1.1,2.4h-1.3c-0.1-0.5-0.2-1-0.4-1.2c-0.4-0.5-1.1-0.8-2-0.8c-0.8,0-1.3,0.2-1.7,0.5
		c-0.3,0.3-0.5,0.7-0.5,1.2s0.2,0.9,0.6,1.1c0.3,0.1,0.8,0.3,1.8,0.5l1.4,0.3c0.7,0.2,1.2,0.4,1.5,0.6c0.6,0.5,0.9,1.2,0.9,2
		c0,1.1-0.4,1.9-1.2,2.4s-1.7,0.7-2.7,0.7c-1.2,0-2.2-0.3-2.9-1c-0.7-0.6-1-1.5-1-2.6h1.2V113z"/>
	<path d="M70,106.2h7.3v1.2h-6v3h5.5v1.2h-5.5v3.4h6.1v1.2H70V106.2z"/>
	<path d="M80.1,113c0,0.6,0.2,1,0.4,1.4c0.4,0.7,1.2,1,2.3,1c0.5,0,0.9-0.1,1.3-0.2c0.8-0.3,1.2-0.8,1.2-1.5c0-0.5-0.2-0.9-0.5-1.2
		c-0.3-0.2-0.9-0.4-1.6-0.6l-1.3-0.3c-0.9-0.2-1.5-0.4-1.8-0.7c-0.6-0.4-0.9-1-0.9-1.9s0.3-1.6,0.9-2.2c0.6-0.6,1.5-0.9,2.6-0.9
		c1,0,1.9,0.3,2.6,0.8c0.7,0.5,1.1,1.3,1.1,2.4h-1.3c-0.1-0.5-0.2-1-0.4-1.2c-0.4-0.5-1.1-0.8-2-0.8c-0.8,0-1.3,0.2-1.7,0.5
		c-0.3,0.3-0.5,0.7-0.5,1.2s0.2,0.9,0.6,1.1c0.3,0.1,0.8,0.3,1.8,0.5l1.4,0.3c0.7,0.2,1.2,0.4,1.5,0.6c0.6,0.5,0.9,1.2,0.9,2
		c0,1.1-0.4,1.9-1.2,2.4s-1.7,0.7-2.7,0.7c-1.2,0-2.2-0.3-2.9-1c-0.7-0.6-1-1.5-1-2.6h1.2V113z"/>
	<path d="M20.4,132.2v-8.6h3.1c0.5,0,0.9,0.1,1.3,0.2c0.4,0.1,0.7,0.3,0.9,0.4s0.4,0.4,0.5,0.7s0.2,0.6,0.2,0.9c0,0.3,0,0.6-0.1,0.8
		s-0.2,0.4-0.3,0.6c-0.1,0.1-0.3,0.3-0.4,0.3c-0.2,0.1-0.3,0.1-0.5,0.2l0,0c0.6,0.1,1,0.3,1.3,0.7s0.4,0.9,0.4,1.4
		c0,0.4-0.1,0.8-0.2,1.1s-0.3,0.6-0.6,0.8s-0.5,0.3-0.9,0.4c-0.3,0.1-0.7,0.1-1.1,0.1L20.4,132.2L20.4,132.2z M21.2,127.4h2.1
		c0.4,0,0.8,0,1.1-0.1c0.3-0.1,0.5-0.2,0.7-0.3s0.3-0.3,0.4-0.5s0.1-0.4,0.1-0.7s0-0.5-0.1-0.7s-0.2-0.3-0.4-0.5
		c-0.2-0.1-0.4-0.2-0.8-0.3c-0.3-0.1-0.7-0.1-1.1-0.1h-1.9L21.2,127.4L21.2,127.4z M21.2,131.5h2.1c0.4,0,0.8,0,1.2-0.1
		c0.3,0,0.6-0.1,0.8-0.2s0.4-0.3,0.5-0.5s0.2-0.5,0.2-0.9s-0.1-0.7-0.2-0.9s-0.3-0.4-0.5-0.5s-0.5-0.2-0.8-0.2s-0.7-0.1-1-0.1h-2.2
		L21.2,131.5L21.2,131.5z"/>
	<path d="M30.8,132.4c-0.4,0-0.8-0.1-1.1-0.2c-0.3-0.1-0.7-0.3-0.9-0.6c-0.3-0.3-0.5-0.6-0.6-1c-0.2-0.4-0.2-0.9-0.2-1.4
		s0.1-0.9,0.2-1.3c0.1-0.4,0.3-0.7,0.5-1s0.5-0.5,0.9-0.7s0.8-0.3,1.3-0.3s0.9,0.1,1.3,0.3s0.7,0.4,0.9,0.7c0.2,0.3,0.4,0.6,0.5,1
		s0.2,0.8,0.2,1.3s-0.1,0.9-0.2,1.3c-0.1,0.4-0.3,0.7-0.6,1c-0.3,0.3-0.6,0.5-0.9,0.7C31.6,132.3,31.2,132.4,30.8,132.4z
		 M32.9,129.1c0-0.4,0-0.7-0.1-1s-0.2-0.6-0.4-0.8c-0.2-0.2-0.4-0.4-0.6-0.6c-0.3-0.1-0.6-0.2-1-0.2s-0.7,0.1-1,0.2
		c-0.3,0.1-0.5,0.3-0.7,0.6s-0.3,0.5-0.4,0.8s-0.1,0.6-0.1,1s0,0.7,0.1,1.1c0.1,0.3,0.2,0.6,0.4,0.8c0.2,0.2,0.4,0.4,0.7,0.5
		c0.3,0.1,0.6,0.2,0.9,0.2c0.4,0,0.7-0.1,1-0.2c0.3-0.1,0.5-0.3,0.7-0.6s0.3-0.5,0.4-0.8S32.9,129.5,32.9,129.1z"/>
	<path d="M39.2,126h0.7v6.2h-0.7v-0.9c-0.1,0.1-0.2,0.2-0.3,0.3c-0.1,0.1-0.3,0.2-0.4,0.3c-0.2,0.1-0.3,0.2-0.5,0.3
		s-0.4,0.1-0.7,0.1c-0.4,0-0.8-0.1-1-0.2c-0.3-0.1-0.5-0.3-0.7-0.5s-0.3-0.5-0.4-0.7c-0.1-0.3-0.1-0.6-0.1-0.9v-4h0.7v4.1
		c0,0.5,0.1,0.9,0.4,1.2c0.2,0.3,0.7,0.4,1.2,0.4c0.3,0,0.6-0.1,0.8-0.2c0.2-0.1,0.4-0.3,0.6-0.5s0.3-0.5,0.4-0.7s0.1-0.6,0.1-0.9
		L39.2,126L39.2,126z"/>
	<path d="M43.8,132.3c-0.1,0-0.2,0-0.3,0.1c-0.1,0-0.3,0.1-0.5,0.1c-0.4,0-0.6-0.1-0.8-0.3c-0.2-0.2-0.3-0.5-0.3-1v-4.5H41V126h0.9
		v-1.7h0.7v1.7h1.2v0.6h-1.2v4.3c0,0.2,0,0.3,0,0.4c0,0.1,0,0.2,0.1,0.3c0,0.1,0.1,0.1,0.2,0.2c0.1,0,0.2,0,0.4,0c0.1,0,0.2,0,0.3,0
		s0.2,0,0.3-0.1v0.6H43.8z"/>
	<path d="M45.1,124.7v-1.1h0.8v1.1H45.1z M45.1,132.2V126h0.7v6.2H45.1z"/>
	<path d="M52.5,126h0.7v8.7h-0.7v-3.4c-0.2,0.4-0.6,0.7-1,0.9s-0.8,0.3-1.3,0.3s-0.9-0.1-1.2-0.3s-0.6-0.4-0.9-0.7s-0.4-0.6-0.5-1
		s-0.2-0.8-0.2-1.2c0-0.5,0.1-0.9,0.2-1.3c0.1-0.4,0.3-0.7,0.5-1s0.5-0.5,0.9-0.7s0.8-0.3,1.3-0.3c0.2,0,0.4,0,0.6,0.1
		s0.4,0.1,0.6,0.2c0.2,0.1,0.4,0.2,0.5,0.4s0.3,0.3,0.4,0.5l0,0L52.5,126L52.5,126z M52.5,129.1c0-0.4,0-0.7-0.1-1s-0.2-0.6-0.4-0.8
		s-0.4-0.4-0.7-0.6c-0.3-0.1-0.6-0.2-0.9-0.2c-0.4,0-0.7,0.1-1,0.2c-0.3,0.1-0.5,0.3-0.7,0.6s-0.3,0.6-0.4,0.9
		c-0.1,0.3-0.1,0.7-0.1,1.1c0,0.4,0.1,0.7,0.2,1s0.3,0.6,0.4,0.8c0.2,0.2,0.4,0.4,0.7,0.5s0.5,0.2,0.8,0.2s0.6-0.1,0.9-0.2
		c0.3-0.1,0.5-0.3,0.7-0.6c0.2-0.2,0.3-0.5,0.4-0.8S52.5,129.5,52.5,129.1z"/>
	<path d="M59.2,126h0.7v6.2h-0.7v-0.9c-0.1,0.1-0.2,0.2-0.3,0.3s-0.3,0.2-0.4,0.3c-0.2,0.1-0.3,0.2-0.5,0.3s-0.4,0.1-0.7,0.1
		c-0.4,0-0.8-0.1-1-0.2c-0.3-0.1-0.5-0.3-0.7-0.5s-0.3-0.5-0.4-0.7c-0.1-0.3-0.1-0.6-0.1-0.9v-4h0.7v4.1c0,0.5,0.1,0.9,0.4,1.2
		c0.2,0.3,0.7,0.4,1.2,0.4c0.3,0,0.6-0.1,0.8-0.2c0.2-0.1,0.4-0.3,0.6-0.5c0.2-0.2,0.3-0.5,0.4-0.7s0.1-0.6,0.1-0.9V126H59.2z"/>
	<path d="M62.1,129.3c0,0.3,0,0.7,0.1,1s0.2,0.6,0.4,0.8s0.4,0.4,0.7,0.5s0.6,0.2,0.9,0.2c0.5,0,0.9-0.1,1.2-0.4s0.6-0.6,0.7-1.1
		h0.8c-0.1,0.3-0.2,0.6-0.3,0.8c-0.1,0.3-0.3,0.5-0.5,0.7s-0.5,0.3-0.8,0.4c-0.3,0.1-0.6,0.2-1,0.2c-0.5,0-0.9-0.1-1.3-0.3
		c-0.4-0.2-0.7-0.4-0.9-0.7s-0.4-0.6-0.5-1s-0.2-0.8-0.2-1.3s0.1-0.9,0.2-1.3c0.1-0.4,0.3-0.8,0.6-1s0.5-0.5,0.9-0.7
		s0.8-0.3,1.2-0.3c0.9,0,1.5,0.3,2,0.9c0.5,0.6,0.7,1.4,0.7,2.6L62.1,129.3L62.1,129.3z M66.2,128.7c0-0.3,0-0.6-0.1-0.9
		c-0.1-0.3-0.2-0.5-0.4-0.7s-0.4-0.4-0.6-0.5c-0.2-0.1-0.5-0.2-0.9-0.2c-0.3,0-0.6,0.1-0.8,0.2s-0.5,0.3-0.6,0.5
		c-0.2,0.2-0.3,0.4-0.4,0.7c-0.1,0.3-0.2,0.5-0.2,0.8L66.2,128.7L66.2,128.7z"/>
	<path d="M71.8,132.2v-8.6h0.8v3.7h5.1v-3.7h0.8v8.6h-0.8V128h-5.1v4.2H71.8z"/>
	<path d="M82.8,132.4c-0.4,0-0.8-0.1-1.1-0.2s-0.7-0.3-0.9-0.6c-0.3-0.3-0.5-0.6-0.6-1c-0.2-0.4-0.2-0.9-0.2-1.4s0.1-0.9,0.2-1.3
		c0.1-0.4,0.3-0.7,0.5-1s0.5-0.5,0.9-0.7s0.8-0.3,1.3-0.3s0.9,0.1,1.3,0.3c0.4,0.2,0.7,0.4,0.9,0.7s0.4,0.6,0.5,1s0.2,0.8,0.2,1.3
		s-0.1,0.9-0.2,1.3c-0.1,0.4-0.3,0.7-0.6,1s-0.6,0.5-0.9,0.7C83.6,132.3,83.2,132.4,82.8,132.4z M84.9,129.1c0-0.4,0-0.7-0.1-1
		s-0.2-0.6-0.4-0.8s-0.4-0.4-0.6-0.6c-0.3-0.1-0.6-0.2-1-0.2s-0.7,0.1-1,0.2c-0.3,0.1-0.5,0.3-0.7,0.6s-0.3,0.5-0.4,0.8
		s-0.1,0.6-0.1,1s0,0.7,0.1,1.1c0.1,0.3,0.2,0.6,0.4,0.8s0.4,0.4,0.7,0.5s0.6,0.2,0.9,0.2c0.4,0,0.7-0.1,1-0.2
		c0.3-0.1,0.5-0.3,0.7-0.6s0.3-0.5,0.4-0.8C84.9,129.8,84.9,129.5,84.9,129.1z"/>
	<path d="M89.2,132.3c-0.1,0-0.2,0-0.3,0.1c-0.1,0-0.3,0.1-0.5,0.1c-0.4,0-0.6-0.1-0.8-0.3s-0.3-0.5-0.3-1v-4.5h-0.9V126h0.9v-1.7
		H88v1.7h1.2v0.6H88v4.3c0,0.2,0,0.3,0,0.4s0,0.2,0.1,0.3c0,0.1,0.1,0.1,0.2,0.2c0.1,0,0.2,0,0.4,0c0.1,0,0.2,0,0.3,0s0.2,0,0.3-0.1
		v0.6H89.2z"/>
	<path d="M90.8,129.3c0,0.3,0,0.7,0.1,1s0.2,0.6,0.4,0.8s0.4,0.4,0.7,0.5s0.6,0.2,0.9,0.2c0.5,0,0.9-0.1,1.2-0.4s0.6-0.6,0.7-1.1
		h0.8c-0.1,0.3-0.2,0.6-0.3,0.8c-0.1,0.3-0.3,0.5-0.5,0.7s-0.5,0.3-0.8,0.4c-0.3,0.1-0.6,0.2-1,0.2c-0.5,0-0.9-0.1-1.3-0.3
		c-0.4-0.2-0.7-0.4-0.9-0.7s-0.4-0.6-0.5-1s-0.2-0.8-0.2-1.3s0.1-0.9,0.2-1.3c0.1-0.4,0.3-0.8,0.6-1s0.5-0.5,0.9-0.7
		s0.8-0.3,1.2-0.3c0.9,0,1.5,0.3,2,0.9c0.5,0.6,0.7,1.4,0.7,2.6L90.8,129.3L90.8,129.3z M94.8,128.7c0-0.3,0-0.6-0.1-0.9
		c-0.1-0.3-0.2-0.5-0.4-0.7s-0.4-0.4-0.6-0.5c-0.2-0.1-0.5-0.2-0.9-0.2c-0.3,0-0.6,0.1-0.8,0.2s-0.5,0.3-0.6,0.5
		c-0.2,0.2-0.3,0.4-0.4,0.7c-0.1,0.3-0.2,0.5-0.2,0.8L94.8,128.7L94.8,128.7z"/>
	<path d="M97.1,132.2v-8.6h0.7v8.6H97.1z"/>
</g>
</svg>
